<!DOCTYPE svg PUBLIC "-//W3C//DTD SVG 1.1//EN" "http://www.w3.org/Graphics/SVG/1.1/DTD/svg11.dtd">
<!-- Uploaded to: SVG Repo, www.svgrepo.com, Transformed by: SVG Repo Mixer Tools -->
<svg fill="#ffffff" version="1.1" id="Layer_1" xmlns="http://www.w3.org/2000/svg" xmlns:xlink="http://www.w3.org/1999/xlink" viewBox="0 0 512.00 512.00" xml:space="preserve" width="79px" height="79px" stroke="#ffffff" stroke-width="0.0051200099999999995">
<g id="SVGRepo_bgCarrier" stroke-width="0"/>
<g id="SVGRepo_tracerCarrier" stroke-linecap="round" stroke-linejoin="round" stroke="#CCCCCC" stroke-width="5.12001"/>
<g id="SVGRepo_iconCarrier"> <g> <g> <path d="M155.43,0c-0.006,0.074-1.13,7.185-6.871,11.928c-4.473,3.696-11.261,5.106-20.175,4.204 c-16.247-1.651-30.618,2.221-41.558,11.196C69.088,41.88,63.542,67.39,63.303,69.896l34.094-0.139 c0.01-0.115,1.582-11.907,9.286-18.228c4.477-3.674,10.539-5.065,18.537-4.253c17.549,1.786,32.11-1.99,43.276-11.212 C184.327,22.986,186.424,2.102,186.611,0H155.43z"/> </g> </g> <g> <g> <path d="M263.576,0c-0.006,0.074-1.13,7.185-6.871,11.928c-4.473,3.696-11.263,5.106-20.176,4.204 c-16.248-1.651-30.619,2.221-41.558,11.196c-17.738,14.553-23.283,40.062-23.523,42.568l34.095-0.139l-0.014,0.139 c0.008-0.073,0.891-7.416,5.17-13.759c3.026-4.484,8.671-10.273,22.667-8.86c17.549,1.786,32.11-1.99,43.276-11.212 C292.473,22.986,294.57,2.102,294.757,0H263.576z"/> </g> </g> <g> <g> <path d="M231.806,289.4V143.053l-33.844,29.596V86.249h-31.305v113.776l-16.239,14.201v-71.172l-53.333,46.64v-96.14H65.78 v123.321h0.223l-28.276,24.727v270.399h81.388h31.305h50.083h31.305h57.061h102.084h83.322V289.4H231.806z M119.114,241.602 v239.094H69.031V255.813l50.083-43.798V241.602z M200.501,289.4v191.296h-50.083V255.813l50.083-43.798V289.4z M359.646,480.695 h-39.475V441.22h39.475V480.695z M442.968,480.695h-52.018v-70.78H288.867v70.78h-57.061V320.704h211.163V480.695z"/> </g> </g> <g> <g> <rect x="289.785" y="351.007" width="100.174" height="31.305"/> </g> </g> </g>
</svg>